<mxfile host="app.diagrams.net" modified="2022-08-05T09:05:35.966Z" agent="5.0 (Macintosh; Intel Mac OS X 10_15_7) AppleWebKit/537.36 (KHTML, like Gecko) Chrome/103.0.0.0 Safari/537.36" etag="ldB8xbF98BM1pUHy0tLP" version="20.2.3" type="github">
  <diagram id="YKywLJ4MnfaMVIdNtOzC" name="第 1 页">
    <mxGraphModel dx="1143" dy="798" grid="1" gridSize="10" guides="1" tooltips="1" connect="1" arrows="1" fold="1" page="1" pageScale="1" pageWidth="1169" pageHeight="1654" math="0" shadow="0">
      <root>
        <mxCell id="0" />
        <mxCell id="1" parent="0" />
        <mxCell id="cNrf6fbMtUB66gXVMf4M-5" style="edgeStyle=orthogonalEdgeStyle;rounded=0;orthogonalLoop=1;jettySize=auto;html=1;strokeWidth=2;" edge="1" parent="1" source="cNrf6fbMtUB66gXVMf4M-3">
          <mxGeometry relative="1" as="geometry">
            <mxPoint x="360" y="840" as="targetPoint" />
          </mxGeometry>
        </mxCell>
        <mxCell id="cNrf6fbMtUB66gXVMf4M-3" value="&lt;span style=&quot;font-size: 22px;&quot;&gt;&lt;b&gt;T1&lt;/b&gt;&lt;/span&gt;" style="rounded=0;whiteSpace=wrap;html=1;" vertex="1" parent="1">
          <mxGeometry x="310" y="210" width="100" height="50" as="geometry" />
        </mxCell>
        <mxCell id="cNrf6fbMtUB66gXVMf4M-6" style="edgeStyle=orthogonalEdgeStyle;rounded=0;orthogonalLoop=1;jettySize=auto;html=1;strokeWidth=2;" edge="1" parent="1" source="cNrf6fbMtUB66gXVMf4M-4">
          <mxGeometry relative="1" as="geometry">
            <mxPoint x="600" y="840" as="targetPoint" />
          </mxGeometry>
        </mxCell>
        <mxCell id="cNrf6fbMtUB66gXVMf4M-4" value="&lt;span style=&quot;font-size: 22px;&quot;&gt;&lt;b&gt;T2&lt;/b&gt;&lt;/span&gt;" style="rounded=0;whiteSpace=wrap;html=1;" vertex="1" parent="1">
          <mxGeometry x="550" y="210" width="100" height="50" as="geometry" />
        </mxCell>
        <mxCell id="cNrf6fbMtUB66gXVMf4M-10" style="edgeStyle=orthogonalEdgeStyle;rounded=0;orthogonalLoop=1;jettySize=auto;html=1;strokeWidth=2;startArrow=none;exitX=0.5;exitY=1;exitDx=0;exitDy=0;" edge="1" parent="1" source="cNrf6fbMtUB66gXVMf4M-23">
          <mxGeometry relative="1" as="geometry">
            <mxPoint x="840" y="840" as="targetPoint" />
            <mxPoint x="840" y="410" as="sourcePoint" />
          </mxGeometry>
        </mxCell>
        <mxCell id="cNrf6fbMtUB66gXVMf4M-11" value="&lt;span style=&quot;font-size: 22px;&quot;&gt;&lt;b&gt;FLAGS&lt;/b&gt;&lt;/span&gt;" style="rounded=0;whiteSpace=wrap;html=1;" vertex="1" parent="1">
          <mxGeometry x="790" y="210" width="100" height="50" as="geometry" />
        </mxCell>
        <mxCell id="cNrf6fbMtUB66gXVMf4M-12" style="edgeStyle=orthogonalEdgeStyle;rounded=0;orthogonalLoop=1;jettySize=auto;html=1;strokeWidth=2;startArrow=none;" edge="1" parent="1" source="cNrf6fbMtUB66gXVMf4M-32">
          <mxGeometry relative="1" as="geometry">
            <mxPoint x="1060" y="840" as="targetPoint" />
            <mxPoint x="1060" y="540" as="sourcePoint" />
          </mxGeometry>
        </mxCell>
        <mxCell id="cNrf6fbMtUB66gXVMf4M-13" value="&lt;span style=&quot;font-size: 22px;&quot;&gt;&lt;b&gt;TURN&lt;/b&gt;&lt;/span&gt;" style="rounded=0;whiteSpace=wrap;html=1;" vertex="1" parent="1">
          <mxGeometry x="1010" y="210" width="100" height="50" as="geometry" />
        </mxCell>
        <mxCell id="cNrf6fbMtUB66gXVMf4M-14" value="" style="endArrow=classic;html=1;rounded=0;fontSize=22;strokeWidth=2;" edge="1" parent="1">
          <mxGeometry width="50" height="50" relative="1" as="geometry">
            <mxPoint x="360" y="330" as="sourcePoint" />
            <mxPoint x="840" y="330" as="targetPoint" />
          </mxGeometry>
        </mxCell>
        <mxCell id="cNrf6fbMtUB66gXVMf4M-15" value="T1" style="text;html=1;align=center;verticalAlign=middle;resizable=0;points=[];autosize=1;strokeColor=none;fillColor=none;fontSize=22;" vertex="1" parent="1">
          <mxGeometry x="455" y="290" width="50" height="40" as="geometry" />
        </mxCell>
        <mxCell id="cNrf6fbMtUB66gXVMf4M-16" value="T2" style="text;html=1;align=center;verticalAlign=middle;resizable=0;points=[];autosize=1;strokeColor=none;fillColor=none;fontSize=22;" vertex="1" parent="1">
          <mxGeometry x="700" y="290" width="50" height="40" as="geometry" />
        </mxCell>
        <mxCell id="cNrf6fbMtUB66gXVMf4M-18" value="" style="endArrow=classic;html=1;rounded=0;fontSize=22;strokeWidth=2;" edge="1" parent="1">
          <mxGeometry width="50" height="50" relative="1" as="geometry">
            <mxPoint x="360" y="470" as="sourcePoint" />
            <mxPoint x="1050" y="470" as="targetPoint" />
          </mxGeometry>
        </mxCell>
        <mxCell id="cNrf6fbMtUB66gXVMf4M-19" value="" style="edgeStyle=orthogonalEdgeStyle;rounded=0;orthogonalLoop=1;jettySize=auto;html=1;strokeWidth=2;endArrow=none;" edge="1" parent="1" source="cNrf6fbMtUB66gXVMf4M-11">
          <mxGeometry relative="1" as="geometry">
            <mxPoint x="840" y="360" as="targetPoint" />
            <mxPoint x="840" y="260" as="sourcePoint" />
          </mxGeometry>
        </mxCell>
        <mxCell id="cNrf6fbMtUB66gXVMf4M-22" value="" style="edgeStyle=orthogonalEdgeStyle;rounded=0;orthogonalLoop=1;jettySize=auto;html=1;strokeWidth=2;endArrow=none;" edge="1" parent="1" source="cNrf6fbMtUB66gXVMf4M-13">
          <mxGeometry relative="1" as="geometry">
            <mxPoint x="1060" y="540" as="targetPoint" />
            <mxPoint x="1060" y="260" as="sourcePoint" />
          </mxGeometry>
        </mxCell>
        <mxCell id="cNrf6fbMtUB66gXVMf4M-23" value="&lt;font style=&quot;font-size: 18px;&quot;&gt;T1 T2 = TRUE&lt;/font&gt;" style="rounded=0;whiteSpace=wrap;html=1;fontSize=22;strokeWidth=2;fontStyle=1" vertex="1" parent="1">
          <mxGeometry x="780" y="360" width="120" height="60" as="geometry" />
        </mxCell>
        <mxCell id="cNrf6fbMtUB66gXVMf4M-30" value="Turn = 2" style="rounded=0;whiteSpace=wrap;html=1;fontSize=22;strokeWidth=2;fontStyle=1" vertex="1" parent="1">
          <mxGeometry x="300" y="520" width="120" height="60" as="geometry" />
        </mxCell>
        <mxCell id="cNrf6fbMtUB66gXVMf4M-31" value="Turn = 1" style="rounded=0;whiteSpace=wrap;html=1;fontSize=22;strokeWidth=2;fontStyle=1" vertex="1" parent="1">
          <mxGeometry x="540" y="520" width="120" height="60" as="geometry" />
        </mxCell>
        <mxCell id="cNrf6fbMtUB66gXVMf4M-32" value="Turn = 1" style="rounded=0;whiteSpace=wrap;html=1;fontSize=22;strokeWidth=2;fontStyle=1" vertex="1" parent="1">
          <mxGeometry x="1000" y="590" width="120" height="60" as="geometry" />
        </mxCell>
        <mxCell id="cNrf6fbMtUB66gXVMf4M-33" value="" style="edgeStyle=orthogonalEdgeStyle;rounded=0;orthogonalLoop=1;jettySize=auto;html=1;strokeWidth=2;startArrow=none;endArrow=none;" edge="1" parent="1" target="cNrf6fbMtUB66gXVMf4M-32">
          <mxGeometry relative="1" as="geometry">
            <mxPoint x="1060" y="840" as="targetPoint" />
            <mxPoint x="1060" y="540" as="sourcePoint" />
          </mxGeometry>
        </mxCell>
        <mxCell id="cNrf6fbMtUB66gXVMf4M-34" value="" style="endArrow=classic;html=1;rounded=0;fontSize=22;strokeWidth=2;" edge="1" parent="1">
          <mxGeometry width="50" height="50" relative="1" as="geometry">
            <mxPoint x="1057" y="720" as="sourcePoint" />
            <mxPoint x="420" y="720" as="targetPoint" />
          </mxGeometry>
        </mxCell>
        <mxCell id="cNrf6fbMtUB66gXVMf4M-36" value="&lt;b&gt;Let Go&lt;/b&gt;" style="rounded=0;whiteSpace=wrap;html=1;fontSize=22;strokeWidth=2;" vertex="1" parent="1">
          <mxGeometry x="300" y="690" width="120" height="60" as="geometry" />
        </mxCell>
        <mxCell id="cNrf6fbMtUB66gXVMf4M-39" style="edgeStyle=orthogonalEdgeStyle;rounded=0;orthogonalLoop=1;jettySize=auto;html=1;entryX=0;entryY=0.5;entryDx=0;entryDy=0;fontSize=18;strokeWidth=2;dashed=1;" edge="1" parent="1" source="cNrf6fbMtUB66gXVMf4M-38" target="cNrf6fbMtUB66gXVMf4M-3">
          <mxGeometry relative="1" as="geometry">
            <Array as="points">
              <mxPoint x="260" y="870" />
              <mxPoint x="260" y="235" />
            </Array>
          </mxGeometry>
        </mxCell>
        <mxCell id="cNrf6fbMtUB66gXVMf4M-38" value="T1 = FALSE" style="rounded=0;whiteSpace=wrap;html=1;fontSize=18;strokeWidth=2;fontStyle=1" vertex="1" parent="1">
          <mxGeometry x="300" y="840" width="120" height="60" as="geometry" />
        </mxCell>
        <mxCell id="cNrf6fbMtUB66gXVMf4M-45" style="edgeStyle=orthogonalEdgeStyle;rounded=0;orthogonalLoop=1;jettySize=auto;html=1;entryX=1;entryY=0.5;entryDx=0;entryDy=0;dashed=1;fontSize=18;strokeWidth=2;" edge="1" parent="1" source="cNrf6fbMtUB66gXVMf4M-40" target="cNrf6fbMtUB66gXVMf4M-38">
          <mxGeometry relative="1" as="geometry" />
        </mxCell>
        <mxCell id="cNrf6fbMtUB66gXVMf4M-40" value="T2 = FALSE" style="rounded=0;whiteSpace=wrap;html=1;fontSize=18;strokeWidth=2;fontStyle=1" vertex="1" parent="1">
          <mxGeometry x="540" y="840" width="120" height="60" as="geometry" />
        </mxCell>
        <mxCell id="cNrf6fbMtUB66gXVMf4M-44" style="edgeStyle=orthogonalEdgeStyle;rounded=0;orthogonalLoop=1;jettySize=auto;html=1;dashed=1;fontSize=18;strokeWidth=2;" edge="1" parent="1" source="cNrf6fbMtUB66gXVMf4M-41">
          <mxGeometry relative="1" as="geometry">
            <mxPoint x="670" y="870" as="targetPoint" />
          </mxGeometry>
        </mxCell>
        <mxCell id="cNrf6fbMtUB66gXVMf4M-41" value="&lt;font style=&quot;font-size: 18px;&quot;&gt;T1 T2 = FLASE&lt;/font&gt;" style="rounded=0;whiteSpace=wrap;html=1;fontSize=22;strokeWidth=2;fontStyle=1" vertex="1" parent="1">
          <mxGeometry x="770" y="840" width="140" height="60" as="geometry" />
        </mxCell>
        <mxCell id="cNrf6fbMtUB66gXVMf4M-43" style="edgeStyle=orthogonalEdgeStyle;rounded=0;orthogonalLoop=1;jettySize=auto;html=1;dashed=1;fontSize=18;strokeWidth=2;" edge="1" parent="1" source="cNrf6fbMtUB66gXVMf4M-42">
          <mxGeometry relative="1" as="geometry">
            <mxPoint x="920" y="870" as="targetPoint" />
          </mxGeometry>
        </mxCell>
        <mxCell id="cNrf6fbMtUB66gXVMf4M-42" value="Turn = 1" style="rounded=0;whiteSpace=wrap;html=1;fontSize=22;strokeWidth=2;fontStyle=1" vertex="1" parent="1">
          <mxGeometry x="1000" y="840" width="120" height="60" as="geometry" />
        </mxCell>
      </root>
    </mxGraphModel>
  </diagram>
</mxfile>
